<?xml version="1.0" encoding="UTF-8" standalone="no"?>
<!-- Generator: Adobe Illustrator 27.4.0, SVG Export Plug-In . SVG Version: 6.00 Build 0)  -->

<svg
   version="1.1"
   id="Ebene_1"
   x="0px"
   y="0px"
   viewBox="0 0 150.00001 150"
   xml:space="preserve"
   sodipodi:docname="favicon.svg"
   width="150"
   height="150"
   inkscape:version="1.2 (dc2aedaf03, 2022-05-15)"
   xmlns:inkscape="http://www.inkscape.org/namespaces/inkscape"
   xmlns:sodipodi="http://sodipodi.sourceforge.net/DTD/sodipodi-0.dtd"
   xmlns="http://www.w3.org/2000/svg"
   xmlns:svg="http://www.w3.org/2000/svg"><defs
   id="defs27" /><sodipodi:namedview
   id="namedview25"
   pagecolor="#ffffff"
   bordercolor="#000000"
   borderopacity="0.25"
   inkscape:showpageshadow="2"
   inkscape:pageopacity="0.0"
   inkscape:pagecheckerboard="0"
   inkscape:deskcolor="#d1d1d1"
   showgrid="false"
   inkscape:zoom="5.1764114"
   inkscape:cx="22.988899"
   inkscape:cy="77.177018"
   inkscape:window-width="3840"
   inkscape:window-height="2081"
   inkscape:window-x="-9"
   inkscape:window-y="-9"
   inkscape:window-maximized="1"
   inkscape:current-layer="Ebene_1" />
<style
   type="text/css"
   id="style2">
	.st0{fill:url(#SVGID_1_);}
	.st1{fill:url(#SVGID_00000156572829004094988820000003907441696411303580_);}
	.st2{fill:#326F95;}
	.st3{fill:url(#SVGID_00000118370014166280020800000007937531333148150429_);}
	.st4{fill:url(#SVGID_00000143605408851765245050000005042355182137921670_);}
	.st5{fill:#FFFFFF;}
	.st6{fill:none;stroke:#FFED00;stroke-miterlimit:10;}
</style>
<g
   id="g22"
   transform="translate(-5.6512985,-21.3375)">
	<linearGradient
   id="SVGID_1_"
   gradientUnits="userSpaceOnUse"
   x1="114.3218"
   y1="28.494101"
   x2="57.079201"
   y2="85.736603">
		<stop
   offset="1.898166e-03"
   style="stop-color:#63C7A6"
   id="stop4" />
		<stop
   offset="0.4868"
   style="stop-color:#54AEA0"
   id="stop6" />
		<stop
   offset="1"
   style="stop-color:#3F8999"
   id="stop8" />
	</linearGradient>
	<path
   class="st0"
   d="m 144.8,61.2 c 0.1,-1.7 -0.7,-3.3 -2.2,-4.2 L 84,23.1 c -2.6,-1.5 -5.8,-1.5 -8.5,0 L 34.6,46.8 c -0.4,-0.1 -0.8,-0.1 -1.2,-0.1 -3.5,0 -6.4,2.9 -6.4,6.4 0,3.5 2.9,6.4 6.4,6.4 3.1,0 5.7,-2.2 6.2,-5.1 L 79.7,31.2 131.9,61.3 83.2,89.3 81.1,88 c -0.8,-0.5 -1.8,-0.5 -2.6,0 l -5.3,3.1 c -0.8,0.5 -1.3,1.3 -1.3,2.3 v 6.1 c 0,0.9 0.5,1.8 1.3,2.2 l 5.3,3.1 c 0.8,0.5 1.8,0.5 2.6,0 l 5.3,-3.1 c 0.8,-0.5 1.3,-1.3 1.3,-2.3 V 97 l 54.9,-31.6 c 1.5,-0.8 2.3,-2.5 2.2,-4.2 z"
   id="path11"
   style="fill:url(#SVGID_1_)" />
	
		<linearGradient
   id="SVGID_00000003826566880651023530000015668579997520155822_"
   gradientUnits="userSpaceOnUse"
   x1="124.2661"
   y1="52.734299"
   x2="29.125799"
   y2="147.8745">
		<stop
   offset="2.847631e-03"
   style="stop-color:#54AEA0"
   id="stop13" />
		<stop
   offset="0.4878"
   style="stop-color:#3F8999"
   id="stop15" />
		<stop
   offset="1"
   style="stop-color:#326F95"
   id="stop17" />
	</linearGradient>
	<path
   style="fill:url(#SVGID_00000003826566880651023530000015668579997520155822_)"
   d="m 140.8,71.9 c -3.5,0 -6.4,2.9 -6.4,6.4 0,1.8 0.7,3.4 1.9,4.5 v 46.3 L 82.2,160.3 V 118 c 0,-0.1 0,-0.1 0,-0.1 0,-0.2 0,-0.3 0,-0.5 0,-0.1 0,-0.3 -0.1,-0.4 0,-0.1 -0.1,-0.3 -0.1,-0.4 0,-0.1 -0.1,-0.3 -0.2,-0.4 -0.1,-0.1 -0.1,-0.3 -0.2,-0.4 -0.1,-0.1 -0.1,-0.3 -0.2,-0.4 -0.1,-0.1 -0.2,-0.2 -0.3,-0.3 -0.1,-0.1 -0.2,-0.2 -0.3,-0.3 -0.1,-0.1 -0.2,-0.2 -0.3,-0.3 -0.1,-0.1 -0.3,-0.2 -0.4,-0.3 0,0 -0.1,-0.1 -0.1,-0.1 l -15.5,-9 V 87.6 l 15.5,-9 c 2.2,-1.2 2.9,-4 1.6,-6.1 -1.2,-2.2 -4,-2.9 -6.1,-1.6 L 61.8,78.8 20.6,59.4 v 0 C 20,59.1 19.3,59 18.7,59 c -2.5,0 -4.5,2 -4.5,4.5 v 66 c 0,3 1.6,5.8 4.2,7.3 l 36.3,21 c 0.7,2.7 3.2,4.7 6.2,4.7 3.5,0 6.4,-2.9 6.4,-6.4 0,-3.5 -2.9,-6.4 -6.4,-6.4 -0.6,0 -1.1,0.1 -1.7,0.2 l -36,-20.8 V 70.5 l 32.5,15.3 c -0.1,0.5 -0.1,1 -0.1,1.4 v 18.2 c 0,3 1.6,5.8 4.2,7.3 l 13.5,7.8 v 45.2 c 0,1.6 0.9,3.1 2.2,3.9 1.3,0.8 2.8,1.1 4.2,1.1 1.5,0 2.9,-0.4 4.2,-1.1 l 57.1,-33 c 2.6,-1.5 4.2,-4.3 4.2,-7.3 V 82.8 c 1.2,-1.2 1.9,-2.8 1.9,-4.5 0.1,-3.5 -2.7,-6.4 -6.3,-6.4 z"
   id="path20" />
</g>
</svg>
